<!-- <svg width="34" height="31" xmlns="http://www.w3.org/2000/svg" xmlns:xlink="http://www.w3.org/1999/xlink" class="prefix__jsx-1156968711"><defs class="prefix__jsx-1156968711"><path id="prefix__a" class="prefix__jsx-1156968711" d="M0 .367h33.089v21.017H0z"/></defs><g fill="none" fill-rule="evenodd" class="prefix__jsx-1156968711"><g class="prefix__jsx-1156968711"><g class="prefix__jsx-1156968711"><g transform="translate(0 1.633)" class="prefix__jsx-1156968711"><mask id="prefix__b" fill="#FFF" class="prefix__jsx-1156968711"><use xlink:href="#prefix__a" class="prefix__jsx-1156968711"/></mask><path d="M8.43 4.581l3.097 15.566 16.81-.989 3.39-14.757H20.052l-11.621.18zm2.606 16.803a.603.603 0 01-.591-.486L7.139 4.278l-2.57-2.704H.605a.604.604 0 110-1.207h4.225c.166 0 .324.068.438.188l2.685 2.826 12.09-.187h12.444a.602.602 0 01.588.74l-3.662 15.935a.602.602 0 01-.552.467l-17.787 1.047-.037.001z" fill="#212A2F" mask="url(#prefix__b)" class="prefix__jsx-1156968711"/></g><path d="M29.428 25.472H11.117a.605.605 0 01-.604-.604v-2.455a.604.604 0 011.208 0v1.85h17.707a.605.605 0 010 1.209M14.417 28.279a2.354 2.354 0 11-4.708 0 2.354 2.354 0 014.708 0M30.272 28.279a2.354 2.354 0 11-4.708 0 2.354 2.354 0 014.708 0" fill="#212A2F" class="prefix__jsx-1156968711"/></g></g></g></svg> -->

<svg  stroke-width="0" viewBox="0 0 24 24"  xmlns="http://www.w3.org/2000/svg"><path fill="none" stroke-width="2px" d="M5,5 L22,5 L20,14 L7,14 L4,2 L0,2 M7,14 L8,18 L21,18 M19,23 C18.4475,23 18,22.5525 18,22 C18,21.4475 18.4475,21 19,21 C19.5525,21 20,21.4475 20,22 C20,22.5525 19.5525,23 19,23 Z M9,23 C8.4475,23 8,22.5525 8,22 C8,21.4475 8.4475,21 9,21 C9.5525,21 10,21.4475 10,22 C10,22.5525 9.5525,23 9,23 Z"></path></svg>